<?xml version="1.0" encoding="UTF-8"?><svg id="a" xmlns="http://www.w3.org/2000/svg" viewBox="0 0 929.55 430.06"><defs><style>.b{letter-spacing:0em;}.c{font-family:AmbroiseStdFirmin-Light, Ambroise Std Firmin;font-size:140px;}.d{letter-spacing:-.02em;}.e{letter-spacing:-.02em;}.f{letter-spacing:0em;}.g{letter-spacing:-.08em;}.h{letter-spacing:-.03em;}</style></defs><text/><text class="c" transform="translate(29.55 228.9)"><tspan class="h" x="0" y="0">W</tspan><tspan class="b" x="105.28" y="0">i</tspan><tspan class="d" x="130.62" y="0">t</tspan><tspan class="f" x="160.16" y="0">c</tspan><tspan x="203" y="0">h</tspan><tspan class="b" x="258.02" y="0">e</tspan><tspan x="303.1" y="0">s </tspan><tspan class="g" x="372.96" y="0">W</tspan><tspan x="471.51" y="0">ea</tspan><tspan class="e" x="563.35" y="0">r</tspan><tspan x="600.73" y="0">abl</tspan><tspan class="b" x="726.45" y="0">e</tspan><tspan x="771.53" y="0">s</tspan></text><path d="M1.55,123.06c3.58,1.79,126.47-.65,141-1,42-1,55-20,55-20,0,0,.47-3.11-3-3-8.92,.29-28.31,3.37-33-2-7-8-5.81-22.5,0-38,3-8,13.93-27.06,26-30,5-1.22,10.14-.24,12,1,3,2,4.94,4.97,3,8.43s-7,.57-8,1.57-1.24,2.14,0,4c2,3,4,4,9,4,2,0,11-3,13-12,4.39-19.74-13-30-27-34S137.55-1.94,105.55,19.06,55.55,83.06,48.55,95.06c-5.73,9.83-33.86,17.57-44,23-2.24,1.2-7,3-3,5Z"/></svg>