<?xml version="1.0" encoding="UTF-8"?><svg id="a" xmlns="http://www.w3.org/2000/svg" viewBox="0 0 826.06 245.58"><g><path d="M127.47,146.6h-.42c-4.48,0-6.44,4.34-11.62,26.74l-16.38,71.4c-.14,.56-.56,.84-1.26,.84h-2.66c-.56,0-.84-.14-1.12-.84l-20.72-79.52h-.28l-18.48,79.52c-.14,.56-.42,.84-1.12,.84h-2.8c-.56,0-.84-.14-.98-.84l-23.8-91.56c-1.4-5.6-2.1-6.58-4.2-6.58h-1.68c-.7,0-1.12-.28-1.12-.7,0-.7,.28-.84,1.12-.84h23.94c.84,0,1.12,.14,1.12,.7s-.28,.84-1.12,.84h-4.34c-2.24,0-2.66,.98-1.26,6.58l18.2,74.62h.28l12.32-54.46c2.38-11.2,5.32-26.74-4.62-26.74h-2.38c-.84,0-1.12-.28-1.12-.7,0-.7,.28-.84,1.12-.84h26.18c.84,0,1.26,.14,1.26,.7s-.28,.84-1.26,.84h-4.34c-2.1,0-2.66,.98-1.26,6.58l18.2,74.62h.28l12.32-54.46c2.38-11.2,5.32-26.74-4.48-26.74h-2.52c-.7,0-1.12-.28-1.12-.7,0-.7,.28-.84,1.12-.84h21c.7,0,.98,.14,.98,.7s-.28,.84-.98,.84Z"/><path d="M147.49,243.9h-21c-.84,0-1.12-.14-1.12-.7s.28-.7,1.12-.7h4.48c1.12,0,1.26-1.54,1.26-5.46v-45.36c0-3.78-.14-5.32-1.26-5.32h-4.9c-.7,0-.98-.14-.98-.7s.28-.7,.98-.7h14.56c.98,0,1.12,.28,1.12,.7v51.38c0,3.92,.14,5.46,1.26,5.46h4.48c.84,0,1.12,.14,1.12,.7s-.28,.7-1.12,.7Zm-10.36-85.12c-3.5,0-6.02-2.52-6.02-6.16s2.52-6.3,6.02-6.3,5.88,2.66,5.74,6.3c-.14,3.64-2.38,6.16-5.74,6.16Z"/><path d="M157.57,230.32v-42.84c0-.42-.14-.98-1.26-.98h-3.64c-1.12,0-1.4-.28-1.4-.7,0-.56,.28-.84,1.4-.84h3.64c1.12,0,1.26-.56,1.26-.98v-12.6c0-.84,.28-1.12,1.12-1.82,2.1-1.54,5.04-4.62,6.16-6.44,.42-.56,.7-1.12,1.4-1.12s.84,.42,.84,1.12v20.86c0,.42,.14,.98,1.4,.98h9.1c1.12,0,1.4,.28,1.4,.84,0,.42-.28,.7-1.4,.7h-9.1c-1.26,0-1.4,.56-1.4,.98v47.6c0,5.74,.7,8.82,4.76,8.82,3.5,0,6.02-2.94,6.02-9.24,0-1.26,0-1.82,.98-1.82,.56,0,.84,.28,.84,1.26,0,8.4-3.5,11.48-9.66,11.48-8.12,0-12.46-6.72-12.46-15.26Z"/><path d="M181.93,214.64c0-15.82,5.32-31.36,21.28-31.36,8.12,0,15.96,5.04,15.96,11.9,0,3.78-2.38,6.44-6.02,6.44s-6.02-2.38-6.02-5.88c0-4.2,2.8-4.48,2.8-7.14,0-2.52-3.08-3.92-6.72-3.92-7.14,0-8.54,5.46-9.24,16.94-.56,8.54-.7,17.78-.14,26.18,.7,10.36,3.78,16.1,10.78,16.1,7.84,0,14-7.56,14-20.72,0-1.54,0-2.24,.98-2.24,.7,0,.98,.56,.98,1.54,0,9.1-3.64,23.1-16.94,23.1-14.98,0-21.7-13.44-21.7-30.94Z"/><path d="M274.61,243.9h-20.72c-.84,0-1.12-.14-1.12-.7s.28-.7,1.12-.7h4.06c1.12,0,1.26-1.54,1.26-5.46v-42.42c0-7.28-3.64-9.94-8.82-9.94-7.7,0-11.06,7.56-11.06,10.92v41.44c0,3.92,.14,5.46,1.26,5.46h4.2c.7,0,.98,.14,.98,.7s-.28,.7-.98,.7h-20.72c-.84,0-1.12-.14-1.12-.7s.28-.7,1.12-.7h4.48c1.12,0,1.26-1.54,1.26-5.46v-85.26c0-3.78-.14-5.32-1.26-5.32h-4.76c-.84,0-1.12-.14-1.12-.7s.28-.7,1.12-.7h14.42c.98,0,1.12,.28,1.12,.7v44.66h.14c1.96-3.92,5.46-7.14,12.32-7.14,8.68,0,16.94,5.46,16.94,18.62v35.14c0,3.92,.14,5.46,1.26,5.46h4.62c.7,0,.98,.14,.98,.7s-.28,.7-.98,.7Z"/><path d="M279.79,214.64c0-15.68,5.6-31.36,20.44-31.36,10.36,0,18.62,7.98,18.62,21.42,0,4.2-1.26,5.46-3.92,5.46h-22.68c-.56,0-.98,0-.98,.84,0,4.62,0,9.66,.42,16.8,.7,10.36,3.64,16.1,11.2,16.1,8.12,0,14.42-7.56,14.42-20.72,0-1.54,.14-2.24,1.12-2.24,.7,0,.98,.56,.98,1.54,0,9.1-3.92,23.1-17.5,23.1-15.54,0-22.12-13.44-22.12-30.94Zm20.16-29.96c-6.16,0-7.84,5.88-8.4,13.86-.14,3.08-.14,6.44-.14,9.1,0,.98,.28,.84,.7,.84h14.98c.42,0,1.12-.28,1.12-1.12,0-3.78-.28-8.4-.84-12.46-.7-6.44-2.94-10.22-7.42-10.22Z"/><path d="M341.39,245.58c-3.78,0-7.84-.98-10.92-2.38-1.26-.7-2.94-1.26-2.94,0v.28c0,.56-.28,.98-.84,.98s-.7-.28-.7-.98v-20.58c0-.7,.14-1.26,.7-1.26s.84,.42,.84,1.26v2.1c0,9.1,5.6,19.18,13.86,19.18,6.3,0,9.8-3.92,9.8-9.66,0-15.4-24.92-15.12-24.92-35.42,0-6.86,4.48-15.82,14-15.82,2.66,0,5.18,.7,7.98,2.1,1.68,.84,3.08,1.26,3.08,0v-.42c0-.7,.28-.98,.84-.98,.42,0,.7,.28,.7,.98v18.76c0,.7-.28,1.12-.7,1.12-.56,0-.84-.42-.84-1.12v-1.26c0-10.08-5.32-17.78-11.48-17.78-5.18,0-7.28,4.34-7.28,8.4,0,16.52,25.06,15.82,25.06,35.56,0,8.4-6.02,16.94-16.24,16.94Z"/><path d="M500.42,146.6h-.42c-4.48,0-6.44,4.34-11.62,26.74l-16.38,71.4c-.14,.56-.56,.84-1.26,.84h-2.66c-.56,0-.84-.14-1.12-.84l-20.72-79.52h-.28l-18.48,79.52c-.14,.56-.42,.84-1.12,.84h-2.8c-.56,0-.84-.14-.98-.84l-23.8-91.56c-1.4-5.6-2.1-6.58-4.2-6.58h-1.68c-.7,0-1.12-.28-1.12-.7,0-.7,.28-.84,1.12-.84h23.94c.84,0,1.12,.14,1.12,.7s-.28,.84-1.12,.84h-4.34c-2.24,0-2.66,.98-1.26,6.58l18.2,74.62h.28l12.32-54.46c2.38-11.2,5.32-26.74-4.62-26.74h-2.38c-.84,0-1.12-.28-1.12-.7,0-.7,.28-.84,1.12-.84h26.18c.84,0,1.26,.14,1.26,.7s-.28,.84-1.26,.84h-4.34c-2.1,0-2.66,.98-1.26,6.58l18.2,74.62h.28l12.32-54.46c2.38-11.2,5.32-26.74-4.48-26.74h-2.52c-.7,0-1.12-.28-1.12-.7,0-.7,.28-.84,1.12-.84h21c.7,0,.98,.14,.98,.7s-.28,.84-.98,.84Z"/><path d="M493.28,214.64c0-15.68,5.6-31.36,20.44-31.36,10.36,0,18.62,7.98,18.62,21.42,0,4.2-1.26,5.46-3.92,5.46h-22.68c-.56,0-.98,0-.98,.84,0,4.62,0,9.66,.42,16.8,.7,10.36,3.64,16.1,11.2,16.1,8.12,0,14.42-7.56,14.42-20.72,0-1.54,.14-2.24,1.12-2.24,.7,0,.98,.56,.98,1.54,0,9.1-3.92,23.1-17.5,23.1-15.54,0-22.12-13.44-22.12-30.94Zm20.16-29.96c-6.16,0-7.84,5.88-8.4,13.86-.14,3.08-.14,6.44-.14,9.1,0,.98,.28,.84,.7,.84h14.98c.42,0,1.12-.28,1.12-1.12,0-3.78-.28-8.4-.84-12.46-.7-6.44-2.94-10.22-7.42-10.22Z"/><path d="M582.18,238.86c-.42,3.5-3.36,6.72-9.1,6.72-4.76,0-7.7-3.08-7.84-7.14h-.14c-2.66,5.32-6.72,7.14-11.9,7.14-9.38,0-14.14-7.28-14.14-15.12s3.64-13.3,10.22-16.66c2.38-.98,7-2.8,10.08-4.34,4.2-1.96,5.46-2.66,5.46-5.74v-8.26c0-9.1-3.5-10.78-8.26-10.78-5.6,0-6.86,1.96-6.86,3.36,0,2.52,3.08,3.08,3.08,6.86s-2.52,5.74-5.6,5.74-5.46-2.1-5.46-6.02c0-6.3,7.42-11.34,15.12-11.34,8.96,0,17.36,5.88,17.36,18.62v37.66c0,2.38,.56,3.78,2.38,3.78s3.64-1.96,4.06-4.62c.14-.7,.42-.98,.98-.98,.56,.14,.56,.42,.56,1.12Zm-17.36-5.46v-25.2c-9.66,4.62-14.28,6.86-14.84,16.52-.14,3.5-.14,9.24,0,12.88,.42,2.94,1.26,6.44,5.74,6.44,4.76,0,9.1-4.48,9.1-10.64Z"/><path d="M607.24,243.9h-22.82c-.84,0-1.12-.14-1.12-.7s.28-.7,1.12-.7h4.48c1.12,0,1.26-1.54,1.26-5.46v-45.36c0-3.78-.14-5.32-1.26-5.32h-4.76c-.84,0-1.12-.14-1.12-.7s.28-.7,1.12-.7h14c1.12,0,1.12,.28,1.12,.7v5.04h.28c2.1-4.62,6.16-7.42,10.92-7.42,5.18,0,10.08,3.08,10.08,9.1,0,3.64-2.52,6.58-6.16,6.58-3.36,0-5.88-2.52-5.88-5.74,0-3.64,2.66-4.62,2.66-6.44,0-1.4-.98-1.96-2.24-1.96-5.04,0-9.24,6.02-9.24,10.64v41.58c0,3.92,.14,5.46,1.26,5.46h6.3c.7,0,.98,.14,.98,.7s-.28,.7-.98,.7Z"/><path d="M665.62,238.86c-.42,3.5-3.36,6.72-9.1,6.72-4.76,0-7.7-3.08-7.84-7.14h-.14c-2.66,5.32-6.72,7.14-11.9,7.14-9.38,0-14.14-7.28-14.14-15.12s3.64-13.3,10.22-16.66c2.38-.98,7-2.8,10.08-4.34,4.2-1.96,5.46-2.66,5.46-5.74v-8.26c0-9.1-3.5-10.78-8.26-10.78-5.6,0-6.86,1.96-6.86,3.36,0,2.52,3.08,3.08,3.08,6.86s-2.52,5.74-5.6,5.74-5.46-2.1-5.46-6.02c0-6.3,7.42-11.34,15.12-11.34,8.96,0,17.36,5.88,17.36,18.62v37.66c0,2.38,.56,3.78,2.38,3.78s3.64-1.96,4.06-4.62c.14-.7,.42-.98,.98-.98,.56,.14,.56,.42,.56,1.12Zm-17.36-5.46v-25.2c-9.66,4.62-14.28,6.86-14.84,16.52-.14,3.5-.14,9.24,0,12.88,.42,2.94,1.26,6.44,5.74,6.44,4.76,0,9.1-4.48,9.1-10.64Z"/><path d="M695.02,245.58c-6.72,0-10.36-4.2-11.9-7.56h-.28v5.18c0,.42-.14,.7-1.12,.7h-13.86c-.84,0-1.12-.14-1.12-.7s.28-.7,1.12-.7h4.48c1.12,0,1.26-1.54,1.26-5.32v-85.26c0-3.92-.14-5.46-1.26-5.46h-4.76c-.84,0-1.12-.14-1.12-.7s.28-.7,1.12-.7h14.56c.84,0,.98,.42,.98,.7v44.66h.14c1.4-2.94,5.04-7.14,11.76-7.14,10.92,0,20.58,10.78,20.58,31.08s-9.66,31.22-20.58,31.22Zm8.82-43.12c-.7-12.32-2.8-17.78-10.08-17.78s-10.64,7-10.64,10.92v37.38c0,4.06,3.5,11.2,10.64,11.2s9.24-5.46,10.08-16.94c.56-8.26,.42-17.36,0-24.78Z"/><path d="M742.62,243.9h-21c-.84,0-1.12-.14-1.12-.7s.28-.7,1.12-.7h4.48c1.12,0,1.26-1.54,1.26-5.46v-85.26c0-3.78-.14-5.32-1.26-5.32h-4.9c-.7,0-.98-.14-.98-.7s.28-.7,.98-.7h14.56c.98,0,1.12,.28,1.12,.7v91.28c0,3.92,.14,5.46,1.26,5.46h4.48c.84,0,1.12,.14,1.12,.7s-.28,.7-1.12,.7Z"/><path d="M748.22,214.64c0-15.68,5.6-31.36,20.44-31.36,10.36,0,18.62,7.98,18.62,21.42,0,4.2-1.26,5.46-3.92,5.46h-22.68c-.56,0-.98,0-.98,.84,0,4.62,0,9.66,.42,16.8,.7,10.36,3.64,16.1,11.2,16.1,8.12,0,14.42-7.56,14.42-20.72,0-1.54,.14-2.24,1.12-2.24,.7,0,.98,.56,.98,1.54,0,9.1-3.92,23.1-17.5,23.1-15.54,0-22.12-13.44-22.12-30.94Zm20.16-29.96c-6.16,0-7.84,5.88-8.4,13.86-.14,3.08-.14,6.44-.14,9.1,0,.98,.28,.84,.7,.84h14.98c.42,0,1.12-.28,1.12-1.12,0-3.78-.28-8.4-.84-12.46-.7-6.44-2.94-10.22-7.42-10.22Z"/><path d="M809.82,245.58c-3.78,0-7.84-.98-10.92-2.38-1.26-.7-2.94-1.26-2.94,0v.28c0,.56-.28,.98-.84,.98s-.7-.28-.7-.98v-20.58c0-.7,.14-1.26,.7-1.26s.84,.42,.84,1.26v2.1c0,9.1,5.6,19.18,13.86,19.18,6.3,0,9.8-3.92,9.8-9.66,0-15.4-24.92-15.12-24.92-35.42,0-6.86,4.48-15.82,14-15.82,2.66,0,5.18,.7,7.98,2.1,1.68,.84,3.08,1.26,3.08,0v-.42c0-.7,.28-.98,.84-.98,.42,0,.7,.28,.7,.98v18.76c0,.7-.28,1.12-.7,1.12-.56,0-.84-.42-.84-1.12v-1.26c0-10.08-5.32-17.78-11.48-17.78-5.18,0-7.28,4.34-7.28,8.4,0,16.52,25.06,15.82,25.06,35.56,0,8.4-6.02,16.94-16.24,16.94Z"/></g><path d="M1.55,123.06c3.58,1.79,126.47-.65,141-1,42-1,55-20,55-20,0,0,.47-3.11-3-3-8.92,.29-28.31,3.37-33-2-7-8-5.81-22.5,0-38,3-8,13.93-27.06,26-30,5-1.22,10.14-.24,12,1,3,2,4.94,4.97,3,8.43s-7,.57-8,1.57-1.24,2.14,0,4c2,3,4,4,9,4,2,0,11-3,13-12,4.39-19.74-13-30-27-34S137.55-1.94,105.55,19.06,55.55,83.06,48.55,95.06c-5.73,9.83-33.86,17.57-44,23-2.24,1.2-7,3-3,5Z"/></svg>