<?xml version='1.0' encoding='utf-8'?>
<svg xmlns="http://www.w3.org/2000/svg" xmlns:osb="http://www.openswatchbook.org/uri/2009/osb" xmlns:xlink="http://www.w3.org/1999/xlink" width="255.07mm" height="231.23mm" version="1.1" viewBox="0 0 903.78555 819.30558">
 <defs>
  <linearGradient id="u">
   <stop offset="0"/>
   <stop stop-opacity="0" offset="1"/>
  </linearGradient>
  <linearGradient id="t">
   <stop stop-color="#1e1e1e" offset="0"/>
  </linearGradient>
  <filter id="v" x="-.056901" y="-.30685" width="1.1138" height="1.6137" color-interpolation-filters="sRGB">
   <feGaussianBlur stdDeviation="11.028163"/>
  </filter>
  <linearGradient id="ah" x1="-468.69" x2="393.41" y1="2510" y2="2510" gradientTransform="matrix(.99121 0 0 1 -.54287 0)" gradientUnits="userSpaceOnUse" xlink:href="#t"/>
  <linearGradient id="ai" x1="-270.6" x2="187.35" y1="2154.2" y2="2154.2" gradientUnits="userSpaceOnUse" xlink:href="#t"/>
  <filter id="w" x="-.20023" y="-.073941" width="1.4005" height="1.1479" color-interpolation-filters="sRGB">
   <feGaussianBlur stdDeviation="1.979468"/>
  </filter>
  <linearGradient id="aj" x1="137.83" x2="211.17" y1="2361.4" y2="2361.4" gradientTransform="matrix(.76733 0 0 1.01 33.57 -23.611)" gradientUnits="userSpaceOnUse" xlink:href="#u"/>
  <linearGradient id="ak" x1="137.83" x2="211.17" y1="2361.4" y2="2361.4" gradientTransform="matrix(-.76733 0 0 1.01 205.9 -23.435)" gradientUnits="userSpaceOnUse" xlink:href="#u"/>
  <filter id="ab" x="-.090362" y="-.078475" width="1.1807" height="1.1569" color-interpolation-filters="sRGB">
   <feGaussianBlur stdDeviation="4.7228533"/>
  </filter>
  <filter id="ag" x="-.1557" y="-.069393" width="1.3114" height="1.1388" color-interpolation-filters="sRGB">
   <feGaussianBlur stdDeviation="1.4634778"/>
  </filter>
  <filter id="a" x="-.073506" y="-.32655" width="1.147" height="1.6531" color-interpolation-filters="sRGB">
   <feGaussianBlur stdDeviation="1.8926138"/>
  </filter>
  <filter id="x" x="-.15984" y="-.069063" width="1.3197" height="1.1381" color-interpolation-filters="sRGB">
   <feGaussianBlur stdDeviation="18.301646"/>
  </filter>
  <filter id="y" x="-.20089" y="-.06307" width="1.4018" height="1.1261" color-interpolation-filters="sRGB">
   <feGaussianBlur stdDeviation="16.741705"/>
  </filter>
  <filter id="z" x="-.15274" y="-.083533" width="1.3055" height="1.1671" color-interpolation-filters="sRGB">
   <feGaussianBlur stdDeviation="21.728568"/>
  </filter>
  <filter id="aa" x="-.17711" y="-.065845" width="1.3542" height="1.1317" color-interpolation-filters="sRGB">
   <feGaussianBlur stdDeviation="17.238055"/>
  </filter>
  <filter id="ac" x="-.073675" y="-.20221" width="1.1474" height="1.4044" color-interpolation-filters="sRGB">
   <feGaussianBlur stdDeviation="9.2313216"/>
  </filter>
  <filter id="ad" x="-.065976" y="-.17617" width="1.132" height="1.3523" color-interpolation-filters="sRGB">
   <feGaussianBlur stdDeviation="10.014286"/>
  </filter>
  <filter id="ae" x="-.060495" y="-.23239" width="1.121" height="1.4648" color-interpolation-filters="sRGB">
   <feGaussianBlur stdDeviation="13.17937"/>
  </filter>
  <filter id="af" x="-.063305" y="-.19854" width="1.1266" height="1.3971" color-interpolation-filters="sRGB">
   <feGaussianBlur stdDeviation="11.379834"/>
  </filter>
 </defs>
 <g transform="translate(486.44 -1791.5)">
  <path transform="matrix(-1 0 0 1 254.68 12)" d="m138.33 2372s17.279 8.3969 26.375 7.5c10.546-1.0398 15.458-18.5 28.292-14.5s-1e-5 -3.75-16.042-6c-16.042-2.25-35.292 1-37.958 5.6667-5.3333 9.3333-0.66667 7.3333-0.66667 7.3333zm-37.985 0s-17.279 8.3969-26.375 7.5c-10.546-1.0398-15.458-18.5-28.292-14.5s1e-5 -3.75 16.042-6c16.042-2.25 35.292 1 37.958 5.6667 5.3333 9.3333 0.66667 7.3333 0.66667 7.3333zm38.326-7.1235c4.1554-1.7735 18.384-9.0742 32.421-6.4737s27.881 15.102 23.594 6.4737m-95.47-0.1768c-4.1554-1.7735-18.384-9.0742-32.421-6.4737s-27.881 15.102-23.594 6.4737m44.949-35.383 16.606 17.142m-5.0212 17.131a19.518 25.308 0 0 0 19.518 25.308 19.518 25.308 0 0 0 19.518 -25.308 19.518 25.308 0 0 0 -19.518 -25.308 19.518 25.308 0 0 0 -19.518 25.308zm15.517-25.307a19.518 25.308 0 0 1 3.041 0.3243 19.518 25.308 0 0 0 -16.559 24.982 19.518 25.308 0 0 0 16.475 24.984 19.518 25.308 0 0 1 -2.957 0.3243 19.518 25.308 0 0 1 -19.518 -25.309 19.518 25.308 0 0 1 19.518 -25.307zm126.99-10.617c-0.24022 0.3715-0.49538 0.7585-0.7461 1.1368 0.25221-0.386 0.49697-0.762 0.7461-1.1368zm-115.82 25.582-0.49804 23.43c22.494 27.599 66.02 74.425 104.27 47.08 0.14385-0.1543 0.26154-0.2994 0.39844-0.4511-0.76535 1.953-2.1505 4.0387-4.3984 6.4511-38.246 27.345-81.772-19.481-104.27-47.08l0.52734-24.82s1.6069-1.9027 3.9707-4.6094zm0.0297 0.6083s8.0115-9.673 19.707-21.612c11.696-11.939 27.076-26.145 41.813-35.209 14.737-9.0647 55.428-12.216 61.693 4.3954 8.296 21.994-16.262 24.441-21.405 65.567-5.1432 41.126 16.595 43.021 1.929 58.76-38.246 27.345-81.771-19.48-104.27-47.08zm-15.601 0.625s-8.0115-9.673-19.707-21.612c-11.696-11.939-27.076-26.145-41.813-35.209-14.737-9.0647-55.428-12.216-61.693 4.3954-8.296 21.994 16.262 24.441 21.405 65.567 5.1432 41.126-16.595 43.021-1.929 58.76 38.246 27.345 81.771-19.48 104.27-47.08zm0.31461 14.806 0.21289 10.016c-9.5458 11.712-22.879 26.885-37.989 38.382-3.7775 2.8743-7.6661 5.5188-11.634 7.8221-1.9841 1.1517-4.7381 1.7181-6.7581 2.6852s-4.5559-8.665-6.604-7.9103c13.168-14.535 49.784-43.478 62.772-50.994zm350.93-51.502s-121.86 23.253-183.53 23.294c-62.329 0.042-185.53-23.294-185.53-23.294l-28.235 75.647s144.34 24.653 217.24 25.176c70.771 0.5082 211.24-21.412 211.24-21.412zm-267.84-339.99 23.726 51.203-18.824 7.0472 5.4187-12.778zm129.03 488.97c46.362-1.7013 181.66-16.281 185.95-20.038 1.7749-1.5539-46.876-128.72-78.245-204.52-46.921-113.38-82.015-179.25-127.15-238.66-15.367-20.227-50.892-63.358-74.358-90.275-29.33-33.644-64.876-72.892-65.475-72.293-0.33277 0.3328 8.6586 41.482 19.981 91.444l20.586 90.839-23.739 58.263c-29.717 72.935-132.25 357.33-129.45 359.06 8.9929 5.5579 144.42 22.12 209.78 25.656 27.45 1.485 34.236 1.5416 62.121 0.5183zm10.712 113.21c113.22-4.2294 226.24-20.635 330.76-48.013 14.455-3.7864 29.154-7.5969 32.665-8.4678s6.3828-2.0369 6.3828-2.5912c0-0.5542-42.408-17.975-94.24-38.713-75.925-30.377-95.408-37.631-100.25-37.321-3.304 0.2113-20.2 2.4416-37.546 4.9562-75.135 10.892-125.88 14.27-195.99 13.046-64.299-1.1227-104.9-4.7975-170.46-15.43-51.705-8.3849-54.49-8.7696-58.245-8.0455-4.9828 0.961-197.78 77.525-197.8 78.55-0.0304 1.6137 75.563 21.037 114.12 29.324 116.95 25.131 252.69 37.11 370.6 32.705z" fill-opacity=".27451" fill-rule="evenodd" filter="url(#a)"/>
  <path d="m-95.313 2580c-113.22-4.2294-226.24-20.635-330.76-48.013-14.455-3.7864-29.154-7.5969-32.665-8.4678s-6.3828-2.0369-6.3828-2.5912c0-0.5542 42.408-17.975 94.24-38.713 75.925-30.377 95.408-37.631 100.25-37.321 3.304 0.2113 20.2 2.4416 37.546 4.9562 75.135 10.892 125.88 14.27 195.99 13.046 64.299-1.1227 104.9-4.7975 170.46-15.43 51.705-8.3849 54.49-8.7696 58.245-8.0455 4.9828 0.961 197.78 77.525 197.8 78.55 0.0304 1.6137-75.563 21.037-114.12 29.324-116.95 25.131-252.69 37.11-370.6 32.705z" fill="url(#ah)"/>
  <path d="m-84.601 2466.8c-46.362-1.7013-181.66-16.281-185.95-20.038-1.7749-1.5539 46.876-128.72 78.245-204.52 46.921-113.38 82.015-179.25 127.15-238.66 15.367-20.227 50.892-63.358 74.358-90.275 29.33-33.644 64.876-72.892 65.475-72.293 0.33277 0.3328-8.6586 41.482-19.981 91.444l-20.586 90.839 23.739 58.263c29.717 72.935 132.25 357.33 129.45 359.06-8.9929 5.5579-144.42 22.12-209.78 25.656-27.45 1.485-34.236 1.5416-62.121 0.5183z" fill="url(#ai)"/>
  <path d="m44.426 1977.8-23.726 51.203 18.824 7.0472-5.4187-12.778z" fill-opacity=".46629" fill-rule="evenodd" filter="url(#w)"/>
 </g>
 <g transform="translate(486.44 -1791.5)">
  <path d="m-223.41 2317.8c59.888 15.365 121.7 23.211 183.53 23.294 62.495 0.084 125-7.7632 185.53-23.294l28.235 75.647c-71.199 16.31-144.19 24.769-217.24 25.176-70.906 0.3953-141.85-6.7961-211.24-21.412l31.176-79.412z" fill="#f00" fill-rule="evenodd"/>
  <path d="m127.52 2369.3-0.21289 10.016c9.5458 11.712 22.879 26.885 37.989 38.382 3.7775 2.8743 7.6661 5.5188 11.634 7.8221 1.9841 1.1517 4.7381 1.7181 6.7581 2.6852s4.5559-8.665 6.604-7.9103c-13.168-14.535-49.784-43.478-62.772-50.994z" fill="none" stroke="#020101" stroke-opacity=".96629"/>
  <path d="m127.83 2354.5s8.0115-9.673 19.707-21.612c11.696-11.939 27.076-26.145 41.813-35.209 14.737-9.0647 55.428-12.216 61.693 4.3954 8.296 21.994-16.262 24.441-21.405 65.567-5.1432 41.126 16.595 43.021 1.929 58.76-38.246 27.345-81.771-19.48-104.27-47.08z" fill="#f00" fill-rule="evenodd"/>
  <path d="m112.23 2353.8s-8.0115-9.673-19.707-21.612c-11.696-11.939-27.076-26.145-41.813-35.209-14.737-9.0647-55.428-12.216-61.693 4.3954-8.296 21.994 16.262 24.441 21.405 65.567 5.1432 41.126-16.595 43.021-1.929 58.76 38.246 27.345 81.771-19.48 104.27-47.08z" fill="#f00" fill-rule="evenodd" stroke="#000" stroke-width=".5"/>
  <path d="m-3.5605 2327.7c0.24022 0.3715 0.49538 0.7585 0.74609 1.1368-0.25221-0.386-0.49696-0.762-0.74609-1.1368zm115.82 25.582 0.49804 23.43c-22.494 27.599-66.02 74.425-104.27 47.08-0.14385-0.1543-0.26154-0.2994-0.39844-0.4511 0.76535 1.953 2.1505 4.0387 4.3984 6.4511 38.246 27.345 81.772-19.481 104.27-47.08l-0.52734-24.82s-1.6069-1.9027-3.9707-4.6094z" fill-opacity=".49412" fill-rule="evenodd" filter="url(#ab)" stroke="#000" stroke-width=".94244"/>
  <path d="m123.43 2338.3a19.518 25.308 0 0 0 -3.041 0.3243 19.518 25.308 0 0 1 16.559 24.982 19.518 25.308 0 0 1 -16.475 24.984 19.518 25.308 0 0 0 2.957 0.3243 19.518 25.308 0 0 0 19.518 -25.309 19.518 25.308 0 0 0 -19.518 -25.307z" fill-opacity=".39216" filter="url(#ag)"/>
  <ellipse cx="119.43" cy="2363.6" rx="19.518" ry="25.308" fill="#f00" stroke="#020101" stroke-opacity=".96629" stroke-width=".5"/>
  <path d="m150.53 2329.3-16.606 17.142" fill="#0f0" fill-rule="evenodd" stroke="#000" stroke-width=".5"/>
  <path d="m139.46 2364.7c9.9696-5 21.296-7.2616 32.421-6.4737 8.188 0.5799 16.257 2.7938 23.594 6.4737" fill-opacity="0" stroke="url(#aj)" stroke-width=".88035px"/>
  <path d="m100.01 2364.9c-9.9696-5-21.296-7.2616-32.421-6.4737-8.188 0.5799-16.257 2.7938-23.594 6.4737" fill-opacity="0" stroke="url(#ak)" stroke-width=".88035px"/>
  <path d="m138.33 2372s17.279 8.3969 26.375 7.5c10.546-1.0398 15.458-18.5 28.292-14.5s-1e-5 -3.75-16.042-6c-16.042-2.25-35.292 1-37.958 5.6667-5.3333 9.3333-0.66667 7.3333-0.66667 7.3333z" fill-opacity=".27451" fill-rule="evenodd" filter="url(#a)"/>
  <path transform="matrix(-1 0 0 1 238.68 3.7804e-8)" d="m138.33 2372s17.279 8.3969 26.375 7.5c10.546-1.0398 15.458-18.5 28.292-14.5s-1e-5 -3.75-16.042-6c-16.042-2.25-35.292 1-37.958 5.6667-5.3333 9.3333-0.66667 7.3333-0.66667 7.3333z" fill-opacity=".27451" fill-rule="evenodd" filter="url(#a)"/>
 </g>
 <g transform="translate(486.44 -1791.5)" fill-rule="evenodd">
  <path d="m74.286 1840.2s-97.564 122.96-122.86 195.71c-33.188 95.467-32.857 301.43-32.857 301.43l-10.592 132.3c86.712 9.1305 171.86 15.038 273.93-26.999 14.064-5.7928-147.7-413.89-147.62-413.87z" fill-opacity=".27451" filter="url(#x)"/>
  <path d="m73.741 1840.3-87.883 194.96 5.0508 440.43c67.464 7.5447 131.49-11.302 194.96-34.345l-149.5-418.2z" fill-opacity=".27451" filter="url(#y)"/>
  <path d="m-272.73 2432.9c35.282 104.81 387.86 118.03 465.15-3.0303 0 0-112.43 18.256-226.33 15.53-149.95-3.5881-238.83-12.5-238.83-12.5z" fill-opacity=".31373" filter="url(#v)"/>
  <path d="m74.286 1844.5-135.71 192.86-111.93 441.53-102.87-27.872c50.512-143.1 105.87-288.59 194.81-424.37z" fill="#fff" fill-opacity=".19608" filter="url(#z)"/>
  <path d="m-163.57 2478.1-150.63 77.424c-69.304-6.7922-84.664-18.306-150.08-33.852l191.43-75.714c33.188 17.146 66.711 29.459 109.29 32.143z" fill="#fff" fill-opacity=".19608" filter="url(#ac)"/>
  <path d="m-87.143 2485.9-50 89.286c174.95 14.134 349.8-10.492 522.86-57.857l-195.71-74.286c-69.543 55.61-187.28 59.992-277.14 42.857z" fill-opacity=".27451" filter="url(#ae)"/>
  <path d="m-37.143 2490.2-7.1429 90c135.11 4.2397 284.55-24.088 431.43-62.857l-197.14-74.286c-69.228 36.616-140.97 65.114-227.14 47.143z" fill-opacity=".27451" filter="url(#af)"/>
  <path d="m21.429 2494.5 22.857 84.286c135.06-8.0133 210.5-25.704 341.43-62.857l-195.71-73.572c-51.309 31.969-102.16 51.317-168.57 52.143z" fill-opacity=".27451" filter="url(#ad)"/>
  <path transform="translate(-2.0004 -.0060289)" d="m125.83 2354.5s8.0115-9.673 19.707-21.612c11.696-11.939 27.076-26.145 41.813-35.209 14.737-9.0647 55.428-12.216 61.693 4.3954 8.296 21.994-16.262 24.441-21.405 65.567-5.1432 41.126 16.595 43.021 1.929 58.76-38.246 27.345-81.771-19.48-104.27-47.08zm-51.099-513.11l-57.579 197.99 81.822 430.32 89.904-27.274c-48.954-144.63-101.03-282.4-153.54-419.21z" fill-opacity=".39216" filter="url(#aa)"/>
 </g>
</svg>