<?xml version="1.0" standalone="no"?>
<svg id="SvgjsSvg1001" width="600" height="600" xmlns="http://www.w3.org/2000/svg" version="1.1" xmlns:xlink="http://www.w3.org/1999/xlink" xmlns:svgjs="http://svgjs.com/svgjs" class="svg-paper" viewBox="0 0 600 600"><title id="SvgjsTitle25117">x=y|y=y|dTest=0.1|sd=0.4|sm=0.05|ts=1 | generated with FlowLines</title><rect id="SvgjsRect25118" width="600" height="600" fill="#0d0f42"/><g id="SvgjsG25119"><polyline id="SvgjsPolyline25120" points="131.81,288.42 4.53,415.7" fill="none" stroke="#474e75" stroke-width="2"/><polyline id="SvgjsPolyline25121" points="113.44,270.05 71.01,312.47 368,15.49" fill="none" stroke="#474e75" stroke-width="2"/><polyline id="SvgjsPolyline25122" points="150.18,306.79 192.61,264.36 22.9,434.07" fill="none" stroke="#474e75" stroke-width="2"/><polyline id="SvgjsPolyline25123" points="10.22,336.53 307.2,39.55" fill="none" stroke="#474e75" stroke-width="2"/><polyline id="SvgjsPolyline25124" points="174.24,245.99 386.37,33.86" fill="none" stroke="#474e75" stroke-width="2"/><polyline id="SvgjsPolyline25125" points="168.55,325.16 210.98,282.73 41.27,452.44" fill="none" stroke="#474e75" stroke-width="2"/><polyline id="SvgjsPolyline25126" points="34.27,275.73 288.83,21.17" fill="none" stroke="#474e75" stroke-width="2"/><polyline id="SvgjsPolyline25127" points="235.03,221.94 447.17,9.8" fill="none" stroke="#474e75" stroke-width="2"/><polyline id="SvgjsPolyline25128" points="271.78,258.68 17.22,513.24" fill="none" stroke="#474e75" stroke-width="2"/><polyline id="SvgjsPolyline25129" points="15.9,257.36 270.46,2.8" fill="none" stroke="#474e75" stroke-width="2"/><polyline id="SvgjsPolyline25130" points="253.41,240.31 465.54,28.17" fill="none" stroke="#474e75" stroke-width="2"/><polyline id="SvgjsPolyline25131" points="290.15,277.05 247.72,319.47 544.7,22.49" fill="none" stroke="#474e75" stroke-width="2"/><polyline id="SvgjsPolyline25132" points="205.29,361.9 35.59,531.61" fill="none" stroke="#474e75" stroke-width="2"/><polyline id="SvgjsPolyline25133" points="39.96,196.57 209.66,26.86" fill="none" stroke="#474e75" stroke-width="2"/><polyline id="SvgjsPolyline25134" points="314.2,216.25 526.33,4.12" fill="none" stroke="#474e75" stroke-width="2"/><polyline id="SvgjsPolyline25135" points="308.52,295.42 266.09,337.85 563.08,40.86" fill="none" stroke="#474e75" stroke-width="2"/><polyline id="SvgjsPolyline25136" points="223.66,380.27 11.53,592.4" fill="none" stroke="#474e75" stroke-width="2"/><polyline id="SvgjsPolyline25137" points="21.59,178.19 191.29,8.49" fill="none" stroke="#474e75" stroke-width="2"/><polyline id="SvgjsPolyline25138" points="326.89,313.79 369.31,271.36 72.33,568.35" fill="none" stroke="#474e75" stroke-width="2"/><polyline id="SvgjsPolyline25139" points="411.74,228.94 581.45,59.23" fill="none" stroke="#474e75" stroke-width="2"/><polyline id="SvgjsPolyline25140" points="3.22,159.82 130.5,32.54" fill="none" stroke="#474e75" stroke-width="2"/><polyline id="SvgjsPolyline25141" points="345.26,332.16 387.68,289.73 90.7,586.72" fill="none" stroke="#474e75" stroke-width="2"/><polyline id="SvgjsPolyline25142" points="430.11,247.31 599.82,77.6" fill="none" stroke="#474e75" stroke-width="2"/><polyline id="SvgjsPolyline25143" points="27.27,99.03 112.13,14.17" fill="none" stroke="#474e75" stroke-width="2"/><polyline id="SvgjsPolyline25144" points="448.48,265.68 151.5,562.66" fill="none" stroke="#474e75" stroke-width="2"/><polyline id="SvgjsPolyline25145" points="490.91,223.25 575.76,138.4" fill="none" stroke="#474e75" stroke-width="2"/><polyline id="SvgjsPolyline25146" points="8.9,80.66 51.33,38.23" fill="none" stroke="#474e75" stroke-width="2"/><polyline id="SvgjsPolyline25147" points="466.85,284.05 424.43,326.47 594.13,156.77" fill="none" stroke="#474e75" stroke-width="2"/><polyline id="SvgjsPolyline25148" points="382,368.9 169.87,581.03" fill="none" stroke="#474e75" stroke-width="2"/><polyline id="SvgjsPolyline25149" points="485.22,302.42 527.65,259.99 188.24,599.4" fill="none" stroke="#474e75" stroke-width="2"/><polyline id="SvgjsPolyline25150" points="503.59,320.79 546.02,278.36 249.04,575.35" fill="none" stroke="#474e75" stroke-width="2"/><polyline id="SvgjsPolyline25151" points="521.96,339.16 564.39,296.73 267.41,593.72" fill="none" stroke="#474e75" stroke-width="2"/><polyline id="SvgjsPolyline25152" points="582.76,315.1 328.2,569.66" fill="none" stroke="#474e75" stroke-width="2"/><polyline id="SvgjsPolyline25153" points="558.71,375.9 346.57,588.03" fill="none" stroke="#474e75" stroke-width="2"/><polyline id="SvgjsPolyline25154" points="577.08,394.27 407.37,563.98" fill="none" stroke="#474e75" stroke-width="2"/><polyline id="SvgjsPolyline25155" points="595.45,412.64 425.74,582.35" fill="none" stroke="#474e75" stroke-width="2"/><polyline id="SvgjsPolyline25156" points="571.39,473.44 486.54,558.29" fill="none" stroke="#474e75" stroke-width="2"/><polyline id="SvgjsPolyline25157" points="589.76,491.81 504.91,576.66" fill="none" stroke="#474e75" stroke-width="2"/><polyline id="SvgjsPolyline25158" points="565.71,552.61 523.28,595.03" fill="none" stroke="#474e75" stroke-width="2"/></g></svg>