<?xml version="1.0" encoding="UTF-8"?><svg id="a" xmlns="http://www.w3.org/2000/svg" viewBox="0 0 86.57 63.83"><defs><style>.b{fill:#33426b;}.c{fill:#231f20;}</style></defs><polygon class="b" points="4.22 29.19 86.26 30.18 16.23 40.97 4.22 29.19"/><g><path class="c" d="M7.32,2.98H0V.53H17.75V2.98h-7.28V25.24h-3.15V2.98Z"/><path class="c" d="M20.96,.53h14.7V2.98h-11.55V11.1h9v2.45h-9v9.24h12.04v2.45h-15.19V.53Z"/><path class="c" d="M59.85,20.02c-2.03,3.89-5.18,5.74-9.8,5.74-7.39,0-11.27-5.67-11.27-12.99S42.77,0,50.05,0c4.17,0,7.46,1.61,9.59,5.15l-2.98,1.51c-1.33-2.45-3.64-3.92-6.62-3.92-5.25,0-7.95,4.45-7.95,10.05s2.8,10.26,7.95,10.26c3.25,0,5.5-1.47,6.83-4.52l2.98,1.51Z"/><path class="c" d="M63.7,.53h3.15V11.2h12.08V.53h3.15V25.24h-3.15V13.83h-12.08v11.41h-3.15V.53Z"/></g><g><path class="c" d="M4.85,63.56H.66L.12,45.02H4.85l-.13,11.07,5.43-11.07h3.9l1.29,11.15,4.08-11.15h4.94l-7.74,18.54h-4.22l-1.42-11.77-6.13,11.77Z"/><path class="c" d="M20.35,63.56l10.05-18.54h4.3l2.85,18.54h-4.6l-.38-3.17h-5.72l-1.59,3.17h-4.92Zm8.38-6.88h3.41l-.64-5.48-2.77,5.48Z"/><path class="c" d="M54.2,45.02l-.73,3.71h-4.84l-2.88,14.83h-4.46l2.88-14.83h-4.84l.73-3.71h14.13Z"/><path class="c" d="M64.19,50.74c.05-1.18-.54-2.28-2.12-2.28-1.85,0-3.12,1.34-3.71,4.38l-.56,2.9c-.56,2.9,.11,4.38,1.99,4.38,1.59,0,2.47-.81,3.04-2.28h4.25c-1.21,4.11-3.71,5.99-7.98,5.99-4,0-6.77-2.79-5.75-8.09l.56-2.9c1.1-5.7,4.35-8.09,8.79-8.09,3.79,0,5.86,2.36,5.75,5.99h-4.25Z"/><path class="c" d="M75.04,52.11h5.7l1.37-7.09h4.46l-3.6,18.54h-4.46l1.5-7.74h-5.7l-1.5,7.74h-4.46l3.6-18.54h4.46l-1.37,7.09Z"/></g></svg>