<?xml version="1.0" standalone="no"?>
<svg xmlns:xlink="http://www.w3.org/1999/xlink" id="wave" style="transform:rotate(180deg); transition: 0.3s" viewBox="0 0 1440 200" version="1.1" xmlns="http://www.w3.org/2000/svg"><defs><linearGradient id="sw-gradient-0" x1="0" x2="0" y1="1" y2="0"><stop stop-color="rgba(11.912, 20.345, 72.373, 1)" offset="0%"/><stop stop-color="rgba(188.489, 39.539, 141.222, 1)" offset="100%"/></linearGradient></defs><path style="transform:translate(0, 0px); opacity:1" fill="url(#sw-gradient-0)" d="M0,180L20,180C40,180,80,180,120,166.7C160,153,200,127,240,103.3C280,80,320,60,360,43.3C400,27,440,13,480,23.3C520,33,560,67,600,70C640,73,680,47,720,56.7C760,67,800,113,840,130C880,147,920,133,960,126.7C1000,120,1040,120,1080,103.3C1120,87,1160,53,1200,33.3C1240,13,1280,7,1320,6.7C1360,7,1400,13,1440,33.3C1480,53,1520,87,1560,93.3C1600,100,1640,80,1680,66.7C1720,53,1760,47,1800,56.7C1840,67,1880,93,1920,93.3C1960,93,2000,67,2040,73.3C2080,80,2120,120,2160,113.3C2200,107,2240,53,2280,26.7C2320,0,2360,0,2400,30C2440,60,2480,120,2520,123.3C2560,127,2600,73,2640,70C2680,67,2720,113,2760,110C2800,107,2840,53,2860,26.7L2880,0L2880,200L2860,200C2840,200,2800,200,2760,200C2720,200,2680,200,2640,200C2600,200,2560,200,2520,200C2480,200,2440,200,2400,200C2360,200,2320,200,2280,200C2240,200,2200,200,2160,200C2120,200,2080,200,2040,200C2000,200,1960,200,1920,200C1880,200,1840,200,1800,200C1760,200,1720,200,1680,200C1640,200,1600,200,1560,200C1520,200,1480,200,1440,200C1400,200,1360,200,1320,200C1280,200,1240,200,1200,200C1160,200,1120,200,1080,200C1040,200,1000,200,960,200C920,200,880,200,840,200C800,200,760,200,720,200C680,200,640,200,600,200C560,200,520,200,480,200C440,200,400,200,360,200C320,200,280,200,240,200C200,200,160,200,120,200C80,200,40,200,20,200L0,200Z"/></svg>